name rise32.9588peak41.5061fall63.4684.mot
datacolumns 19
datarows 24
range 6.17330900000000 6.21164300000000
endheader
time	ground_force1_vx	ground_force1_vy	ground_force1_vz	ground_force1_px	ground_force1_py	ground_force1_pz	ground_force2_vx	ground_force2_vy	ground_force2_vz	ground_force2_px	ground_force2_py	ground_force2_pz	ground_torque1_x	ground_torque1_y	ground_torque1_z	ground_torque2_x	ground_torque2_y	ground_torque2_z	
6.17330900000000	11.86081600000000	711.74239599999999	45.32217500000000	0.22601700000000	0.00000000000000	0.11616300000000	0.00000000000000	0.00000000000000	0.00000000000000	0.00000000000000	0.00000000000000	0.00000000000000	0.00000000000000	18.38279400000000	0.00000000000000	0.00000000000000	0.00000000000000	0.00000000000000	
6.17498000000000	11.61344300000000	712.30965400000002	45.27116000000000	0.22538400000000	0.00000000000000	0.11607300000000	0.00000000000000	0.00000000000000	0.00000000000000	0.00000000000000	0.00000000000000	0.00000000000000	0.00000000000000	18.39013700000000	0.00000000000000	0.00000000000000	0.00000000000000	0.00000000000000	
6.17664100000000	11.35924500000000	712.91205600000001	45.21910100000000	0.22474600000000	0.00000000000000	0.11598100000000	0.00000000000000	0.00000000000000	0.00000000000000	0.00000000000000	0.00000000000000	0.00000000000000	0.00000000000000	18.39933700000000	0.00000000000000	0.00000000000000	0.00000000000000	0.00000000000000	
6.17830900000000	11.09768600000000	713.54958799999997	45.16611400000000	0.22410000000000	0.00000000000000	0.11588600000000	0.00000000000000	0.00000000000000	0.00000000000000	0.00000000000000	0.00000000000000	0.00000000000000	0.00000000000000	18.41042700000000	0.00000000000000	0.00000000000000	0.00000000000000	0.00000000000000	
6.17997600000000	10.82825200000000	714.22223799999995	45.11232600000000	0.22344500000000	0.00000000000000	0.11578900000000	0.00000000000000	0.00000000000000	0.00000000000000	0.00000000000000	0.00000000000000	0.00000000000000	0.00000000000000	18.42344100000000	0.00000000000000	0.00000000000000	0.00000000000000	0.00000000000000	
6.18164800000000	10.55046000000000	714.92999599999996	45.05788100000000	0.22278000000000	0.00000000000000	0.11569100000000	0.00000000000000	0.00000000000000	0.00000000000000	0.00000000000000	0.00000000000000	0.00000000000000	0.00000000000000	18.43841400000000	0.00000000000000	0.00000000000000	0.00000000000000	0.00000000000000	
6.18331000000000	10.26385500000000	715.67285100000004	45.00293400000000	0.22210300000000	0.00000000000000	0.11559100000000	0.00000000000000	0.00000000000000	0.00000000000000	0.00000000000000	0.00000000000000	0.00000000000000	0.00000000000000	18.45538100000000	0.00000000000000	0.00000000000000	0.00000000000000	0.00000000000000	
6.18497500000000	9.96801300000000	716.45079099999998	44.94765500000000	0.22141200000000	0.00000000000000	0.11548900000000	0.00000000000000	0.00000000000000	0.00000000000000	0.00000000000000	0.00000000000000	0.00000000000000	0.00000000000000	18.47438000000000	0.00000000000000	0.00000000000000	0.00000000000000	0.00000000000000	
6.18663900000000	9.66254800000000	717.26379899999995	44.89222700000000	0.22070800000000	0.00000000000000	0.11538700000000	0.00000000000000	0.00000000000000	0.00000000000000	0.00000000000000	0.00000000000000	0.00000000000000	0.00000000000000	18.49544700000000	0.00000000000000	0.00000000000000	0.00000000000000	0.00000000000000	
6.18831300000000	9.34711100000000	718.11185000000000	44.83684300000000	0.21998800000000	0.00000000000000	0.11528300000000	0.00000000000000	0.00000000000000	0.00000000000000	0.00000000000000	0.00000000000000	0.00000000000000	0.00000000000000	18.51861900000000	0.00000000000000	0.00000000000000	0.00000000000000	0.00000000000000	
6.18998000000000	9.02139000000000	718.99491200000000	44.78171000000000	0.21925200000000	0.00000000000000	0.11517900000000	0.00000000000000	0.00000000000000	0.00000000000000	0.00000000000000	0.00000000000000	0.00000000000000	0.00000000000000	18.54393400000000	0.00000000000000	0.00000000000000	0.00000000000000	0.00000000000000	
6.19164400000000	8.68511900000000	719.91294100000005	44.72704400000000	0.21850000000000	0.00000000000000	0.11507400000000	0.00000000000000	0.00000000000000	0.00000000000000	0.00000000000000	0.00000000000000	0.00000000000000	0.00000000000000	18.57142700000000	0.00000000000000	0.00000000000000	0.00000000000000	0.00000000000000	
6.19331000000000	8.33807100000000	720.86587799999995	44.67307300000000	0.21773000000000	0.00000000000000	0.11496800000000	0.00000000000000	0.00000000000000	0.00000000000000	0.00000000000000	0.00000000000000	0.00000000000000	0.00000000000000	18.60113300000000	0.00000000000000	0.00000000000000	0.00000000000000	0.00000000000000	
6.19498100000000	7.98006700000000	721.85364900000002	44.62003100000000	0.21694300000000	0.00000000000000	0.11486300000000	0.00000000000000	0.00000000000000	0.00000000000000	0.00000000000000	0.00000000000000	0.00000000000000	0.00000000000000	18.63308600000000	0.00000000000000	0.00000000000000	0.00000000000000	0.00000000000000	
6.19664100000000	7.61097000000000	722.87615800000003	44.56816500000000	0.21613700000000	0.00000000000000	0.11475700000000	0.00000000000000	0.00000000000000	0.00000000000000	0.00000000000000	0.00000000000000	0.00000000000000	0.00000000000000	18.66731700000000	0.00000000000000	0.00000000000000	0.00000000000000	0.00000000000000	
6.19830800000000	7.23069400000000	723.93328799999995	44.51772600000000	0.21531400000000	0.00000000000000	0.11465200000000	0.00000000000000	0.00000000000000	0.00000000000000	0.00000000000000	0.00000000000000	0.00000000000000	0.00000000000000	18.70385400000000	0.00000000000000	0.00000000000000	0.00000000000000	0.00000000000000	
6.19998000000000	6.83919600000000	725.02489600000001	44.46897300000000	0.21447300000000	0.00000000000000	0.11454700000000	0.00000000000000	0.00000000000000	0.00000000000000	0.00000000000000	0.00000000000000	0.00000000000000	0.00000000000000	18.74272500000000	0.00000000000000	0.00000000000000	0.00000000000000	0.00000000000000	
6.20164600000000	6.43648400000000	726.15081299999997	44.42217200000000	0.21361500000000	0.00000000000000	0.11444200000000	0.00000000000000	0.00000000000000	0.00000000000000	0.00000000000000	0.00000000000000	0.00000000000000	0.00000000000000	18.78395000000000	0.00000000000000	0.00000000000000	0.00000000000000	0.00000000000000	
6.20331100000000	6.02261200000000	727.31083500000000	44.37759200000000	0.21273900000000	0.00000000000000	0.11433800000000	0.00000000000000	0.00000000000000	0.00000000000000	0.00000000000000	0.00000000000000	0.00000000000000	0.00000000000000	18.82754800000000	0.00000000000000	0.00000000000000	0.00000000000000	0.00000000000000	
6.20498000000000	5.59768200000000	728.50472800000000	44.33550700000000	0.21184600000000	0.00000000000000	0.11423500000000	0.00000000000000	0.00000000000000	0.00000000000000	0.00000000000000	0.00000000000000	0.00000000000000	0.00000000000000	18.87353400000000	0.00000000000000	0.00000000000000	0.00000000000000	0.00000000000000	
6.20664100000000	5.16184300000000	729.73221699999999	44.29619400000000	0.21093800000000	0.00000000000000	0.11413200000000	0.00000000000000	0.00000000000000	0.00000000000000	0.00000000000000	0.00000000000000	0.00000000000000	0.00000000000000	18.92191600000000	0.00000000000000	0.00000000000000	0.00000000000000	0.00000000000000	
6.20831000000000	4.71529000000000	730.99299099999996	44.25993200000000	0.21001400000000	0.00000000000000	0.11403100000000	0.00000000000000	0.00000000000000	0.00000000000000	0.00000000000000	0.00000000000000	0.00000000000000	0.00000000000000	18.97269900000000	0.00000000000000	0.00000000000000	0.00000000000000	0.00000000000000	
6.20997700000000	4.25826400000000	732.28669300000001	44.22700100000000	0.20907500000000	0.00000000000000	0.11393100000000	0.00000000000000	0.00000000000000	0.00000000000000	0.00000000000000	0.00000000000000	0.00000000000000	0.00000000000000	19.02588100000000	0.00000000000000	0.00000000000000	0.00000000000000	0.00000000000000	
6.21164300000000	3.79105000000000	733.61292300000002	44.19767900000000	0.20812400000000	0.00000000000000	0.11383100000000	0.00000000000000	0.00000000000000	0.00000000000000	0.00000000000000	0.00000000000000	0.00000000000000	0.00000000000000	19.08145300000000	0.00000000000000	0.00000000000000	0.00000000000000	0.00000000000000	
